<svg width="512" height="512" viewBox="0 0 512 512" fill="none" xmlns="http://www.w3.org/2000/svg">
<path d="M282.439 251.543L285.484 262.494L247.371 286.157L234.184 411.275H212.487V471.895H138.917V411.275H187.874L228.19 251.338L173.693 187.888H239.93L286.035 247.126L282.439 251.543Z" fill="#242525"/>
<path d="M373.083 411.275V471.895H212.487V411.275H234.184L247.371 286.157L285.484 262.494L326.913 411.275H373.083Z" fill="#424343"/>
<path d="M334.214 187.888L286.035 247.126L239.93 187.888H173.693L253.063 83.6352L283 122.094L265.267 144.31L253.948 158.49L277.222 187.888L289.005 174.28L307.246 153.241L334.214 187.888Z" fill="#424343"/>
<path d="M289.005 174.28L277.222 187.888L253.948 158.49L265.267 144.31L289.005 174.28Z" fill="#242525"/>
</svg>
