<svg width="512" height="512" viewBox="0 0 512 512" fill="none" xmlns="http://www.w3.org/2000/svg">
<path d="M289.534 279.158L249.984 305.942L236.009 411.275H212.368V471.895H138.798V411.275H178.164C188.997 382.752 227.553 270 227.553 270L179.244 175.327H235.318L256 270H286.456L289.534 279.158Z" fill="#242525"/>
<path d="M372.964 411.275V471.895H212.368V411.275H236.009L249.984 305.942L289.534 279.158L333.987 411.275H372.964Z" fill="#424343"/>
<path d="M333.447 175.986L286.456 270H256L235.318 175.327H179.244C179.244 175.327 208.34 148.856 256 148.856C303.66 148.856 333.447 175.986 333.447 175.986Z" fill="#424343"/>
<path d="M291.23 64.26V90.504C289.977 90.3528 288.724 90.1908 287.471 90.0288C283.843 89.5752 280.214 89.1108 276.585 88.6464C274.792 88.4196 273.01 88.1928 271.228 87.9768C268.982 87.6852 266.66 87.1668 264.392 87.3828C263.754 87.4368 263.096 87.5772 262.62 88.0092C262.07 88.5276 261.907 89.3376 261.962 90.0936C262.016 90.99 262.221 91.908 262.437 92.7828L270.202 129.6H255.654V43.038H269.597L262.318 62.5104C260.936 66.42 261.843 67.7268 266.454 67.4028L291.23 64.26Z" fill="#424343"/>
<path d="M255.654 43.038V129.6H241.107L248.883 92.7828C249.088 91.908 249.293 90.99 249.358 90.0936C249.401 89.3376 249.239 88.5276 248.688 88.0092C248.224 87.5772 247.554 87.4368 246.928 87.3828C244.649 87.1668 242.338 87.6852 240.081 87.9768C238.299 88.1928 236.517 88.4196 234.735 88.6464C231.106 89.1109 227.466 89.5753 223.837 90.0288C222.585 90.1908 221.332 90.3528 220.079 90.504V64.26L244.865 67.4028C249.466 67.7268 250.373 66.42 248.991 62.5104L241.722 43.038H255.654Z" fill="#242525"/>
</svg>
