<svg width="512" height="512" viewBox="0 0 512 512" fill="none" xmlns="http://www.w3.org/2000/svg">
<path d="M372.964 411.275V471.895H212.368V411.275H238.234L249.056 287.312L298.919 255.874L333.22 411.275H372.964Z" fill="#424343"/>
<path d="M298.919 255.874L249.056 287.312L238.234 411.275H212.368V471.895H138.798V411.275H179.698L216.515 244.501L144.047 100.105L169.665 108.68V130.928L214.377 182.142V113.076L202.313 97.9668L211.947 71.5284L250.06 244.825H296.478L298.919 255.874Z" fill="#242525"/>
<path d="M296.403 244.501L296.478 244.825H250.06L211.947 71.5284L213.642 66.8628L233.018 92.826L226.581 109.48L255.266 172.433L270.818 206.572L296.187 72.3384V72.3276L300.302 67.7592L310.734 100.105L296.403 111.856V181.17L337.378 134.233V110.646L368.871 100.105L296.403 244.501Z" fill="#424343"/>
<path d="M296.187 72.3384L270.818 206.572L255.266 172.433L286.283 109.48L278.043 92.502L296.187 72.3384Z" fill="#242525"/>
</svg>
