<svg width="512" height="512" viewBox="0 0 512 512" fill="none" xmlns="http://www.w3.org/2000/svg">
<path d="M292.785 369.209L272.632 411.275H212.487V471.895H138.917V411.275H203.62L159.567 365.116L184.882 335.707C152.32 300.488 141.391 250.463 160.215 205.632C171.296 179.226 192.561 155.002 218.06 139.86C190.909 167.432 172.559 203.342 171.339 242.838C170.864 258.217 173.553 273.866 180.098 287.852C199.959 330.286 247.479 360.99 292.785 369.209Z" fill="#D2D3D4"/>
<path d="M373.083 411.275V471.895H212.487V411.275H272.632L292.785 369.209C247.479 360.99 199.959 330.286 180.098 287.852C173.553 273.866 170.864 258.217 171.339 242.838C172.559 203.342 190.908 167.432 218.06 139.86H231.787L356.872 226.249L323.738 266.825C312.603 258.196 301.457 245.83 286.737 244.728C282.968 244.436 279.112 244.642 275.537 245.84C267.383 248.584 259.618 259.405 253.667 265.399L252.263 266.825L230.857 292.075H278.129L352.779 364.738L303.898 411.275H373.083Z" fill="#F3F3F4"/>
<path d="M278.13 292.075H230.858L252.264 266.825L278.13 292.075Z" fill="#D2D3D4"/>
</svg>
