<svg width="512" height="512" viewBox="0 0 512 512" fill="none" xmlns="http://www.w3.org/2000/svg">
<path d="M279.35 296.81L245.114 327.007L235.21 411.28H212.606V471.9H139.036V411.28H189.85L228.158 294.488C209.668 284.509 197.108 264.95 197.108 242.476C197.108 232.151 199.754 222.452 204.409 214.007C217.995 235.132 264.403 288.991 279.35 296.81Z" fill="#D2D3D4"/>
<path d="M373.202 411.28V471.9H212.606V411.28H235.21L245.114 327.007L279.35 296.811C264.403 288.991 217.995 235.132 204.409 214.007C214.453 195.755 233.871 183.4 256.173 183.4C288.8 183.4 315.238 209.849 315.238 242.476C315.238 266.495 300.896 287.177 280.3 296.4L319.299 411.28H373.202Z" fill="#F3F3F4"/>
</svg>
